# xmcd
#
# Track frame offsets:
#	150
#	16096
#	27905
#	41632
#	58213
#	74299
#	88648
#	103365
#	115798
#	128908
#	139988
#	151188
#	167743
#	185259
#	201206
#	213471
#	222083
#
# Disc length: 3228 seconds
#
# Revision: 0
# Processed by: cddbd v1.5.2PL0 Copyright (c) Steve Scherf et al.
# Submitted via: dBpowerAMP V4.0
#
DISCID=f50c9a11
DTITLE=Jools Holland With Ruby Turner - The Informer
DYEAR=2008
DGENRE=Rhythm and Blues
TTITLE0=The Informer
TTITLE1=Honey Hush
TTITLE2=I Went By
TTITLE3=St. Louis Blues
TTITLE4=Boring
TTITLE5=Them That Speak Don't Know
TTITLE6=L-O-V-E
TTITLE7=Waterloo Bridge
TTITLE8=Fat Fred
TTITLE9=Bang And Pop
TTITLE10=Jumpin' At The Jubilee
TTITLE11=The Life Of A Man
TTITLE12=Max The Miller
TTITLE13=I Know Where I Am Going
TTITLE14=Shaking Around The Block
TTITLE15=Playboy Life
TTITLE16=Love Made Them Do That
EXTD=
EXTT0=
EXTT1=
EXTT2=
EXTT3=
EXTT4=
EXTT5=
EXTT6=
EXTT7=
EXTT8=
EXTT9=
EXTT10=
EXTT11=
EXTT12=
EXTT13=
EXTT14=
EXTT15=
EXTT16=
PLAYORDER=
